<svg width="60" height="34" viewBox="0 0 60 34" fill="none" xmlns="http://www.w3.org/2000/svg">
<path d="M41.1936 0.0159998V34H30.5856V17.056L25.3536 34H16.2336L11.0016 17.056V34H0.345625V0.0159998H13.4016L20.8896 20.416L28.1856 0.0159998H41.1936ZM53.3939 16.576C55.4419 17.056 57.0259 18.048 58.1459 19.552C59.2979 21.024 59.8739 22.736 59.8739 24.688C59.8739 27.664 58.8819 29.968 56.8979 31.6C54.9459 33.2 52.1299 34 48.4499 34H30.6419V0.0159998H47.9699C51.4259 0.0159998 54.1459 0.768 56.1299 2.272C58.1139 3.776 59.1059 5.968 59.1059 8.848C59.1059 10.832 58.5779 12.512 57.5219 13.888C56.4979 15.232 55.1219 16.128 53.3939 16.576ZM41.2979 13.264H45.4259C46.3859 13.264 47.0899 13.072 47.5379 12.688C48.0179 12.304 48.2579 11.712 48.2579 10.912C48.2579 10.08 48.0179 9.472 47.5379 9.088C47.0899 8.672 46.3859 8.464 45.4259 8.464H41.2979V13.264ZM46.1459 25.456C47.1059 25.456 47.8099 25.28 48.2579 24.928C48.7379 24.544 48.9779 23.936 48.9779 23.104C48.9779 21.472 48.0339 20.656 46.1459 20.656H41.2979V25.456H46.1459Z" fill="#102630"/>
</svg>
